<?xml version="1.0" encoding="UTF-8" standalone="no"?>
<svg
   xmlns:dc="http://purl.org/dc/elements/1.1/"
   xmlns:cc="http://creativecommons.org/ns#"
   xmlns:rdf="http://www.w3.org/1999/02/22-rdf-syntax-ns#"
   xmlns:svg="http://www.w3.org/2000/svg"
   xmlns="http://www.w3.org/2000/svg"
   xmlns:sodipodi="http://sodipodi.sourceforge.net/DTD/sodipodi-0.dtd"
   xmlns:inkscape="http://www.inkscape.org/namespaces/inkscape"
   height="512px"
   viewBox="0 0 512 512"
   width="512px"
   version="1.1"
   id="svg8"
   sodipodi:docname="beer.svg"
   inkscape:version="0.92.2pre0 (973e216, 2017-07-25)">
  <metadata
     id="metadata14">
    <rdf:RDF>
      <cc:Work
         rdf:about="">
        <dc:format>image/svg+xml</dc:format>
        <dc:type
           rdf:resource="http://purl.org/dc/dcmitype/StillImage" />
      </cc:Work>
    </rdf:RDF>
  </metadata>
  <defs
     id="defs12" />
  <sodipodi:namedview
     pagecolor="#ffffff"
     bordercolor="#666666"
     borderopacity="1"
     objecttolerance="10"
     gridtolerance="10"
     guidetolerance="10"
     inkscape:pageopacity="0"
     inkscape:pageshadow="2"
     inkscape:window-width="1366"
     inkscape:window-height="740"
     id="namedview10"
     showgrid="false"
     inkscape:zoom="0.4609375"
     inkscape:cx="256"
     inkscape:cy="97.752877"
     inkscape:window-x="0"
     inkscape:window-y="0"
     inkscape:window-maximized="1"
     inkscape:current-layer="svg8" />
  <path
     style="fill:#00dc80"
     d="m 324.93774,511.22526 119.99218,-1.37891 c 16.54187,-0.19014 29.84444,-13.80188 29.6543,-30.34375 l -0.1543,-13.39062 c 11.82119,-5.76906 19.79532,-17.86811 19.63477,-31.83594 -0.0694,-6.03866 -1.66972,-11.70522 -4.42969,-16.63476 13.75273,-4.59978 24.03584,-17.72956 23.85352,-33.5918 -0.11238,-9.7767 -4.24765,-18.58086 -10.8086,-24.86523 6.82418,-6.8406 10.34169,-15.79554 10.23438,-25.13086 -0.11237,-9.7767 -4.24765,-18.58281 -10.80859,-24.86719 6.82417,-6.84061 10.34167,-15.79554 10.23437,-25.13086 -0.22183,-19.29951 -16.10089,-34.81753 -35.40039,-34.5957 l -5.4375,0.0625 c -1.54278,-10.85017 -6.57208,-20.83522 -14.54102,-28.62305 l -25.06835,-24.49805 c 4.69061,-41.2207 2.06256,-93.13531 -8.07618,-134.03711 2.41175,-4.97336 4.80078,-9.88867 4.80078,-9.88867 1.04178,-2.14883 1.28441,-4.59668 0.67579,-6.90625 L 418.83422,5.6862002 c -1.16048,-4.44008 -5.19757,-7.51564 -9.78711,-7.46289 l -59.99414,0.68945 c -4.58954,0.0528 -8.55516,3.21997 -9.61328,7.68555 L 329.90063,46.71159 c -0.55541,2.31904 -0.25691,4.76044 0.83398,6.88476 0,0 2.50578,4.88236 5.04297,9.80274 -9.01117,40.20389 -10.77437,92.1416 -5.00976,134.16406 l -23.30664,23.84375 -0.85547,0.01 c -39.21616,0.45076 -76.47041,15.56005 -104.90821,42.54882 -3.75522,3.64496 1.90464,-2.61972 -23.96484,28.9375 l -31.31055,0.35938 -0.11523,-10 c -0.0635,-5.52308 -4.59215,-9.94825 -10.11523,-9.88477 l -125.990243,1.44922 c -5.5230697,0.0635 -9.94824971,4.5902 -9.88475971,10.11328 L 2.3849973,464.92839 c 0.0635,5.52307 4.59217,9.94825 10.1152397,9.88476 l 125.990233,-1.44726 c 5.52307,-0.0635 9.94825,-4.59217 9.88477,-10.11524 l -0.11524,-10 33.91993,-0.38867 c 13.16315,5.62252 25.58488,12.57837 37.03711,20.5918 24.53506,17.18398 53.16132,26.75002 83.07812,27.83593 5.70984,6.32932 13.95566,10.0354 22.64258,9.93555 z m -0.22852,-20 c -5.48792,0.0631 -10.05161,-4.34802 -10.11523,-9.88281 l -0.34375,-29.99805 83.38086,-0.95898 c 5.83232,11.88688 18.14738,19.79216 31.84179,19.63476 l 24.99805,-0.28711 0.11523,10 c 0.0634,5.51526 -4.3695,10.04989 -9.88476,10.11328 z m -30.12304,-10.50195 c -22.9807,-2.26727 -44.85908,-10.31564 -63.90039,-23.65625 -13.0747,-9.1433 -27.37504,-17.09768 -42.70703,-23.46485 -1.25212,-0.51689 -2.5958,-0.77925 -3.95118,-0.76367 l -35.99609,0.41406 -1.38086,-119.99218 35.99805,-0.41407 c 2.96856,-0.0341 5.77048,-1.38653 7.64258,-3.68945 l 24.23242,-29.79101 c 1.01596,-0.65625 34.2265,-37.28353 92.3125,-37.95118 l 79.99414,-0.91992 c 8.26898,-0.0951 15.07682,6.55915 15.17187,14.82813 0.0937,8.1479 -6.40875,15.07316 -14.82617,15.16992 l -74.61719,0.85742 c -4.74969,0.0546 -8.80748,3.44643 -9.70312,8.11328 -0.85039,4.5257 -0.97653,4.80385 -1.04297,5.82031 -0.80172,11.81858 -3.56731,23.29346 -8.2207,34.10547 -16.00258,37.25279 -47.13711,50.69197 -48.94922,52.09571 -4.82085,2.70011 -6.53993,8.79634 -3.83985,13.61328 2.69217,4.80922 8.78272,6.54391 13.60743,3.83984 2.12046,-1.42681 21.0585,-9.99435 38.76171,-31.16016 z m -272.316413,-26.02344 -1.83984,-159.99023 105.992183,-1.2168 1.83985,159.98828 z m 406.972653,-4.67773 c -8.15962,0.0938 -15.07557,-6.44783 -15.17187,-14.82618 -0.0953,-8.29242 6.52985,-15.07651 14.82617,-15.17187 l 29.99805,-0.3457 c 8.26899,-0.095 15.07682,6.55914 15.17187,14.82812 0.0958,8.33539 -6.57672,15.0751 -14.82617,15.16992 z M 314.01977,431.3444 312.80102,325.23893 c 4.4496,-10.86827 7.33777,-22.26635 8.56641,-33.98828 l 71.40039,-0.82031 c 1.2065,7.76399 4.97121,14.67913 10.39062,19.87109 -0.0889,0.087 -0.18267,0.16889 -0.27148,0.25977 -3.37073,3.44912 -5.9329,7.47055 -7.6211,11.83789 -4.00696,-1.26262 -8.22684,-1.90086 -12.51562,-1.85156 -22.05323,0.25349 -39.7906,18.4038 -39.53711,40.45703 0.25349,22.05323 18.4038,39.79059 40.45703,39.53711 4.29659,-0.0494 8.50758,-0.78424 12.48828,-2.14649 1.87631,4.5217 4.66847,8.56322 8.14844,11.89844 -0.0888,0.087 -0.18073,0.17476 -0.26953,0.26563 -5.35539,5.47597 -8.69511,12.39652 -9.66797,19.86132 z m 114.64844,-31.31836 c -9.08534,0.10443 -16.02661,-7.85208 -15.10156,-16.41797 0.003,-0.0352 0.008,-0.0703 0.0117,-0.10937 0.71243,-7.35243 6.90091,-13.38056 14.74414,-13.47071 l 49.9961,-0.57617 c 8.26898,-0.095 15.07682,6.55915 15.17187,14.82813 0.0953,8.29242 -6.52983,15.07456 -14.82616,15.16992 z m -45.22852,-19.48242 c -11.02662,0.12674 -20.10177,-8.74292 -20.22851,-19.76953 -0.12674,-11.02662 8.74291,-20.10178 19.76953,-20.22852 3.95286,-0.0454 7.77829,1.08619 11.04101,3.19336 1.64478,6.4698 5.05829,12.16997 9.67578,16.58985 -0.0772,0.079 -0.15714,0.15535 -0.23437,0.23437 -4.48663,4.58702 -7.616,10.34045 -9.05664,16.5332 -3.21732,2.18165 -7.01394,3.40183 -10.9668,3.44727 z m 44.65234,-30.51563 c -8.33539,0.0958 -15.07465,-6.53765 -15.16992,-14.82617 -0.0953,-8.29242 6.52984,-15.07651 14.82617,-15.17187 l 49.9961,-0.57422 c 8.26899,-0.0951 15.07683,6.55718 15.17187,14.82617 0.0953,8.29242 -6.52985,15.07652 -14.82617,15.17188 z m -0.57421,-49.99609 c -9.39782,0.10803 -16.68328,-8.43015 -14.90821,-17.81445 -1.4e-4,-0.0117 0.004,-0.0235 0.004,-0.0352 1.26375,-6.62824 7.09228,-12.0626 14.56055,-12.14844 l 49.99609,-0.57421 c 8.26898,-0.095 15.07682,6.55718 15.17187,14.82617 0.0953,8.29242 -6.53179,15.07651 -14.82812,15.17187 z M 421.635,250.49479 c -2.45453,-17.10183 -17.29609,-30.20196 -35.0332,-29.99804 l -50.85351,0.58398 12.77734,-13.07617 c 2.20082,-2.25201 3.21158,-5.40572 2.73047,-8.51758 -3.45658,-22.37191 -4.59361,-48.53216 -3.29102,-74.55273 l 65.07422,-0.74805 c 1.89266,25.99559 1.35368,52.17568 -1.58398,74.60937 -0.40946,3.1221 0.67382,6.25425 2.92578,8.45118 l 28.60351,27.95507 c 4.13263,4.0387 6.94459,9.06129 8.23047,14.55469 l -24.27148,0.2793 c -1.79676,0.0207 -3.56953,0.17725 -5.3086,0.45898 z M 347.96508,124.93425 c 1.47288,-14.60384 5.22061,-48.45816 8.10938,-60.53126 0.55528,-2.33075 0.25695,-4.78396 -0.8418,-6.9121 -1.69812,-3.2932 -3.65892,-7.10338 -5.02148,-9.75196 l 6.8789,-28.91601 44.37891,-0.50977 7.54297,28.75 c -1.29746,2.67525 -3.16723,6.5222 -4.78516,9.86524 -1.04178,2.14883 -1.28049,4.59665 -0.67578,6.90625 3.16188,12.02696 7.68416,45.79712 9.48828,60.35156 z"
     id="path4"
     inkscape:connector-curvature="0"
     sodipodi:nodetypes="ccccccscccsscccccccccccccccccccccccccccccccccccccccccccccccccccsccccccccccccccccccccccccccccccsscccccccccccccccsccccccccccccccccccccccccccccccccccccccccccccc" />
</svg>
